<svg xmlns="http://www.w3.org/2000/svg" width="11" height="11" viewBox="0 0 11 11"><defs><style>.cls-1 { fill: #525c68; fill-rule: evenodd; }</style></defs><path id="Shape_2_copy_8" data-name="Shape 2 copy 8" class="cls-1" d="M.8 8.157L0 11l2.933-.842a3.848 3.848 0 0 0-.792-1.233A3.4 3.4 0 0 0 .8 8.157zm6.49-6.56L1.552 7.332a5.68 5.68 0 0 1 1.312.87 5.38 5.38 0 0 1 .806 1.25c.354-.356 3.984-3.985 5.732-5.733a4.845 4.845 0 0 0-.895-1.334 3.93 3.93 0 0 0-1.22-.786zM10.567.434A1.51 1.51 0 0 0 8.406.48l-.344.343a4.164 4.164 0 0 1 1.24.813 4.693 4.693 0 0 1 .876 1.307l.346-.346a1.51 1.51 0 0 0 .04-2.163z"/></svg>
