<?xml version="1.0" encoding="utf-8"?>
<!-- Generator: Adobe Illustrator 24.0.1, SVG Export Plug-In . SVG Version: 6.00 Build 0)  -->
<svg version="1.1" id="a6b1c65d-a71e-4aec-a150-cb98f524599f"
	 xmlns="http://www.w3.org/2000/svg" xmlns:xlink="http://www.w3.org/1999/xlink" x="0px" y="0px" viewBox="0 0 9.7 9.7"
	 style="enable-background:new 0 0 9.7 9.7;" xml:space="preserve">
<style type="text/css">
	.st0{fill:#E53C3C;}
</style>
<title>LearnCue_Login Interaction Windows</title>
<g>
	<path class="st0" d="M0.9,9.4c-0.2,0-0.3-0.1-0.4-0.2C0.3,9,0.3,8.6,0.5,8.3l7.8-7.8c0.2-0.2,0.6-0.2,0.9,0c0.2,0.2,0.2,0.6,0,0.9
		L1.4,9.2C1.3,9.3,1.1,9.4,0.9,9.4z"/>
</g>
<g>
	<path class="st0" d="M8.8,9.4c-0.2,0-0.3-0.1-0.4-0.2L0.5,1.4c-0.2-0.2-0.2-0.6,0-0.9s0.6-0.2,0.9,0l7.8,7.8c0.2,0.2,0.2,0.6,0,0.9
		C9.1,9.3,8.9,9.4,8.8,9.4z"/>
</g>
</svg>
